# xmcd CD database file
#
# Track frame offsets:
#	150
#	23930
#	45622
#
# Disc length: 923 seconds
#
# Revision: 4
# Processed by: cddbd v1.5PL3 Copyright (c) Steve Scherf et al.
# Submitted via: CDex 1.40Release
#
DISCID=1d039903
DTITLE=陣内大蔵 - 僕は風　君は空
DYEAR=1994
DGENRE=Pop
TTITLE0=僕は風　君は空
TTITLE1=生まれ変わるぜ
TTITLE2=僕は風　君は空(original karaoke)
EXTD=YEAR: 1994 ID3G: 13
EXTT0=
EXTT1=
EXTT2=
PLAYORDER=
